<svg version="1.1" xmlns="http://www.w3.org/2000/svg" width="1024.000000pt" height="1024.000000pt" viewBox="0 0 1024.000000 1024.000000" preserveAspectRatio="xMidYMid meet" xmlns:xlink="http://www.w3.org/1999/xlink">

<g transform="translate(0.000000,1024.000000) scale(0.100000,-0.100000)" fill="#fff" stroke="none">
<path d="M4845 10234 c-1287 -83 -2438 -596 -3330 -1481 -850 -844 -1365
-1927 -1491 -3138 -25 -238 -25 -753 0 -990 32 -308 90 -614 166 -885 335
-1184 1070 -2197 2085 -2875 708 -472 1484 -750 2350 -841 238 -25 752 -25
990 0 1206 127 2283 636 3124 1477 691 691 1172 1568 1380 2515 86 393 115
674 115 1104 0 350 -13 527 -60 815 -232 1412 -1027 2651 -2209 3440 -706 471
-1493 753 -2345 840 -147 16 -643 27 -775 19z m1119 -2245 c-1 -859 -4 -1562
-6 -1564 -2 -2 -52 6 -113 16 -125 21 -329 25 -451 8 -360 -50 -706 -237 -932
-504 -104 -123 -170 -218 -231 -337 -8 -15 -17 -26 -20 -24 -3 2 -4 575 -1
1273 3 697 4 1271 3 1274 -1 3 -64 -25 -140 -62 -175 -84 -276 -126 -483 -199
-243 -85 -298 -102 -309 -95 -9 5 -5 744 4 753 2 2 48 15 102 29 256 64 493
145 703 240 437 198 734 394 1034 686 l70 67 387 0 387 0 -4 -1561z m-3315
-2219 c287 -283 618 -608 734 -722 l212 -207 3 709 2 710 164 0 164 0 1 -1110
c0 -610 -4 -1110 -9 -1110 -4 0 -342 334 -751 743 l-744 742 -3 -620 -2 -620
-153 0 -152 0 -3 1003 c-1 566 2 1002 7 1000 4 -1 243 -235 530 -518z m5411
330 l0 -150 -265 0 -265 0 0 -819 c0 -451 -3 -826 -6 -835 -5 -14 -33 -16
-205 -16 -184 0 -199 1 -199 18 0 10 16 65 36 122 108 316 133 731 59 985 -25
86 -26 100 -25 317 l1 228 -175 0 -174 0 -35 48 c-37 49 -153 164 -222 219
l-40 32 758 1 757 0 0 -150z m-2255 100 c380 -54 712 -257 911 -556 193 -290
250 -633 165 -986 -36 -148 -93 -270 -195 -418 l-51 -75 -5 -150 -5 -149 -387
-291 c-213 -159 -466 -348 -563 -420 -98 -71 -223 -165 -279 -207 -55 -43
-122 -94 -148 -113 -27 -20 -48 -41 -48 -46 0 -5 422 -9 1078 -9 l1077 0 0
-288 0 -287 -2060 0 -2060 0 -3 215 -2 215 261 200 c144 110 273 209 288 220
15 11 69 54 121 95 126 101 349 269 485 365 61 43 158 113 217 156 l108 77
105 -63 c105 -64 262 -131 385 -166 69 -20 232 -46 315 -51 l50 -2 -1 129 -1
130 -99 12 c-389 46 -684 215 -915 523 -79 105 -173 318 -204 460 -26 120 -31
327 -11 445 41 237 152 459 326 649 38 41 180 156 246 198 127 81 293 147 449
178 103 20 339 25 450 10z m-1508 -1237 c-2 -21 -4 -4 -4 37 0 41 2 58 4 38 2
-21 2 -55 0 -75z m-340 -15 c-2 -24 -4 -7 -4 37 0 44 2 63 4 43 2 -21 2 -57 0
-80z m-466 45 c13 -16 12 -17 -3 -4 -17 13 -22 21 -14 21 2 0 10 -8 17 -17z
m760 -761 c59 -106 227 -300 318 -367 22 -16 40 -34 40 -40 0 -9 -381 -290
-393 -290 -3 0 -8 168 -11 373 -5 405 -4 415 46 324z m-440 -119 c13 -16 12
-17 -3 -4 -17 13 -22 21 -14 21 2 0 10 -8 17 -17z m4069 -2343 c11 0 40 -29
40 -40 0 -17 -33 -20 -44 -4 -17 23 -71 15 -71 -10 0 -19 15 -26 77 -40 32 -7
49 -34 42 -64 -7 -23 -23 -31 -72 -38 -37 -4 -92 21 -92 43 0 17 10 16 30 -2
25 -23 72 -28 95 -12 26 20 7 42 -43 52 -51 9 -82 31 -82 59 0 38 55 71 98 60
8 -2 17 -4 22 -4z m-5780 -19 c30 -57 -1 -101 -72 -101 l-48 0 0 -34 c0 -34
-13 -55 -24 -38 -3 5 -8 50 -12 100 l-7 92 76 0 c65 0 78 -3 87 -19z m424 3
c23 -23 21 -71 -4 -79 -25 -8 -25 -19 1 -62 12 -19 19 -36 16 -39 -5 -6 -25
12 -65 60 -15 18 -31 26 -45 24 -18 -2 -23 -10 -25 -45 -3 -39 -14 -55 -25
-35 -3 4 -8 49 -12 100 l-7 92 75 0 c55 0 80 -4 91 -16z m442 1 c28 -19 48
-68 40 -98 -12 -48 -72 -91 -116 -83 -14 2 -28 5 -31 5 -4 1 -18 13 -33 27
-61 62 -14 164 76 164 24 0 53 -7 64 -15z m455 -14 c19 -20 29 -40 29 -60 0
-73 -31 -98 -130 -103 l-55 -3 -3 98 -3 97 66 0 c60 0 69 -3 96 -29z m319 -46
c0 -70 2 -76 24 -86 14 -7 36 -9 49 -5 28 7 37 37 37 118 0 35 4 48 13 46 15
-6 22 -130 8 -156 -5 -10 -29 -25 -51 -32 -36 -12 -46 -12 -68 1 -37 20 -52
55 -52 120 0 58 4 69 27 69 10 0 13 -19 13 -75z m562 46 c28 -25 31 -31 16
-36 -11 -4 -28 1 -44 14 -33 26 -56 27 -78 2 -21 -24 -25 -83 -7 -105 17 -20
75 -21 95 -1 15 15 36 20 36 9 0 -7 -39 -43 -49 -45 -86 -19 -131 16 -131 101
0 30 6 43 31 64 42 36 89 35 131 -3z m448 15 c0 -9 -12 -16 -32 -18 -30 -3
-33 -6 -36 -38 -5 -72 -13 -120 -21 -120 -5 0 -12 36 -15 80 l-7 80 -30 0
c-19 0 -29 5 -29 15 0 12 16 15 85 15 67 0 85 -3 85 -14z m710 -3 c73 -43 64
-136 -17 -169 -59 -25 -123 -3 -143 50 -17 45 -12 66 24 102 39 39 89 45 136
17z m375 -29 c16 -22 40 -54 52 -70 l22 -29 0 73 c1 67 3 72 22 72 20 0 21 -4
15 -46 -3 -26 -6 -69 -6 -95 0 -42 -3 -49 -20 -49 -11 0 -20 5 -20 11 0 5 6 7
13 3 6 -4 4 2 -7 14 -10 12 -22 19 -26 17 -5 -3 -24 14 -44 37 l-36 43 0 -50
c0 -52 -13 -85 -27 -71 -4 4 -10 48 -12 98 -3 89 -3 90 20 86 13 -2 37 -21 54
-44z m615 13 c0 -19 2 -36 4 -38 3 -3 29 -2 58 1 52 5 53 6 53 38 0 27 4 32
22 32 20 0 23 -5 23 -42 0 -122 -27 -194 -40 -107 -5 32 -7 34 -55 40 -27 3
-53 4 -57 2 -5 -2 -8 -22 -8 -44 0 -28 -4 -39 -15 -39 -12 0 -15 17 -15 95 0
78 3 95 15 95 10 0 15 -10 15 -33z m564 23 c37 -14 62 -70 50 -111 -27 -96
-168 -101 -196 -7 -26 87 55 153 146 118z m1326 -5 c0 -12 -13 -15 -60 -15
-57 0 -60 -1 -60 -24 0 -23 4 -25 53 -28 67 -4 68 -22 1 -26 -43 -2 -53 -7
-57 -24 -9 -33 0 -38 64 -38 32 0 59 -4 59 -9 0 -9 -139 -21 -150 -13 -2 1 -6
45 -8 97 l-4 95 81 0 c65 0 81 -3 81 -15z m-3294 -32 c-3 -21 -6 -57 -6 -80 0
-32 -4 -43 -15 -43 -12 0 -15 16 -15 80 0 75 1 80 21 80 19 0 21 -4 15 -37z
m2313 -28 c-2 -73 10 -95 50 -95 41 0 51 17 51 92 0 63 2 68 21 68 21 0 21 -4
17 -71 -7 -89 -27 -114 -92 -114 -69 0 -86 22 -86 112 0 67 2 73 20 73 19 0
21 -6 19 -65z"></path>
<path d="M3868 8653 c7 -3 16 -2 19 1 4 3 -2 6 -13 5 -11 0 -14 -3 -6 -6z"></path>
<path d="M3628 8583 c7 -3 16 -2 19 1 4 3 -2 6 -13 5 -11 0 -14 -3 -6 -6z"></path>
<path d="M3558 8573 c7 -3 16 -2 19 1 4 3 -2 6 -13 5 -11 0 -14 -3 -6 -6z"></path>
<path d="M5937 8545 l6 -40 -26 29 c-21 25 -28 27 -41 17 -9 -8 -20 -9 -28 -4
-20 12 -242 12 -250 -1 -5 -7 -71 -10 -203 -8 -128 2 -195 -1 -195 -8 0 -5
-18 -10 -40 -10 -29 0 -40 -4 -40 -15 0 -12 -20 -15 -119 -15 -66 0 -121 4
-123 9 -5 14 -158 26 -158 12 0 -8 -6 -7 -20 1 -16 10 -24 10 -40 0 -12 -7
-20 -8 -20 -2 0 6 -35 10 -85 10 -69 0 -85 -3 -85 -15 0 -12 -15 -15 -75 -15
-43 0 -75 4 -75 10 0 6 -18 10 -40 10 -22 0 -40 -4 -40 -10 0 -5 -15 -10 -34
-10 -28 0 -35 4 -40 26 l-7 25 -247 -6 c-136 -3 -278 -7 -317 -8 -65 -2 -70 0
-73 20 l-3 22 -20 -20 c-16 -16 -28 -19 -59 -14 -24 4 -41 2 -45 -5 -5 -7 2
-9 22 -5 21 5 24 4 13 -4 -8 -6 -28 -11 -45 -12 -28 -1 -28 -2 -6 -8 l23 -6
-23 -12 c-43 -20 -62 -24 -70 -12 -4 6 -10 -71 -13 -172 -7 -191 -6 -204 1
-382 l5 -108 27 3 c14 2 25 9 23 16 -2 10 2 10 17 0 16 -10 29 -8 73 10 29 12
58 22 63 22 12 0 143 48 167 61 10 5 27 9 37 9 11 0 22 4 25 9 3 5 17 12 31
15 14 4 59 22 100 41 41 19 76 35 79 35 8 0 112 48 187 86 71 36 99 42 99 22
0 -7 1 -165 2 -350 3 -295 9 -385 25 -341 4 10 8 9 19 -1 8 -8 12 -20 9 -28
-12 -31 8 -36 103 -25 82 9 92 13 92 30 0 16 8 12 40 -23 l40 -43 0 41 0 42
40 0 c39 0 40 -1 41 -37 l1 -38 12 40 13 40 13 -45 13 -45 13 40 c7 22 13 32
13 23 1 -16 12 -18 81 -18 75 0 80 1 80 22 0 18 6 15 40 -22 34 -37 40 -40 40
-22 0 21 5 22 80 22 47 0 80 -4 80 -10 0 -5 18 -10 40 -10 22 0 40 5 40 10 0
6 73 10 200 10 127 0 200 4 200 10 0 6 18 10 41 10 37 0 40 2 35 23 -3 12 -3
16 0 10 8 -18 34 -16 34 2 0 8 5 15 10 15 6 0 10 -7 10 -15 0 -12 13 -15 55
-15 30 0 55 4 55 9 0 6 19 11 41 13 41 3 42 4 55 53 16 61 20 1030 4 1055 -6
10 -7 2 -3 -25z m-2500 -51 c-3 -3 -12 -4 -19 -1 -8 3 -5 6 6 6 11 1 17 -2 13
-5z m1506 -21 c-13 -2 -33 -2 -45 0 -13 2 -3 4 22 4 25 0 35 -2 23 -4z m-1363
-573 c-8 -5 -19 -10 -25 -10 -5 0 -3 5 5 10 8 5 20 10 25 10 6 0 3 -5 -5 -10z
m1620 -490 c0 -5 -18 -10 -40 -10 -22 0 -40 5 -40 10 0 6 18 10 40 10 22 0 40
-4 40 -10z"></path>
<path d="M3318 8513 c6 -2 18 -2 25 0 6 3 1 5 -13 5 -14 0 -19 -2 -12 -5z"></path>
<path d="M3301 8496 c2 -2 18 -6 34 -10 22 -5 26 -4 15 4 -14 9 -59 15 -49 6z"></path>
<path d="M4245 7410 c-3 -5 -1 -10 4 -10 6 0 11 5 11 10 0 6 -2 10 -4 10 -3 0
-8 -4 -11 -10z"></path>
<path d="M5412 5854 c-87 -17 -225 -75 -303 -127 -190 -126 -334 -337 -385
-566 -24 -107 -15 -325 18 -441 97 -336 363 -585 693 -647 98 -19 280 -13 375
13 269 71 500 255 610 486 57 120 81 220 87 373 9 213 -33 362 -149 536 -125
188 -332 325 -564 374 -87 19 -285 18 -382 -1z m-635 -646 c-3 -8 -6 -5 -6 6
-1 11 2 17 5 13 3 -3 4 -12 1 -19z m-40 -255 c-3 -10 -5 -4 -5 12 0 17 2 24 5
18 2 -7 2 -21 0 -30z m10 -95 c-2 -13 -4 -3 -4 22 0 25 2 35 4 23 2 -13 2 -33
0 -45z"></path>
<path d="M5708 3347 c-16 -6 -28 -14 -28 -19 0 -4 -18 -8 -40 -8 -57 0 -55
-27 3 -33 23 -2 -13 -4 -80 -5 l-123 -2 0 -40 c0 -22 -4 -40 -10 -40 -5 0 -10
18 -10 40 0 29 -4 40 -15 40 -11 0 -15 -11 -15 -40 0 -22 -4 -40 -10 -40 -5 0
-10 18 -10 39 0 22 -4 43 -10 46 -6 3 -7 -1 -4 -9 6 -16 -45 -76 -65 -76 -5 0
-11 12 -13 28 l-3 27 -27 -29 c-21 -21 -28 -39 -28 -67 0 -22 -4 -39 -10 -39
-5 0 -10 18 -10 40 l0 40 -40 0 -40 0 0 -40 0 -40 -40 0 -40 0 0 40 c0 22 -4
40 -10 40 -5 0 -10 -18 -10 -40 0 -38 -2 -40 -30 -40 -28 0 -30 -2 -30 -40 l0
-40 -40 0 -40 0 2 -82 c1 -46 3 -64 5 -40 6 57 33 59 33 2 0 -57 27 -55 33 3
l4 42 1 -42 2 -43 77 0 c67 0 74 -2 58 -13 -18 -14 -14 -37 6 -37 16 0 41 29
34 40 -3 5 1 10 10 10 11 0 15 -5 11 -15 -3 -8 0 -15 6 -15 7 0 3 -6 -8 -14
-18 -14 -18 -15 -1 -22 10 -3 28 -1 40 5 41 22 92 73 89 90 -2 14 -1 14 7 1 9
-12 14 -11 33 10 13 14 22 29 20 34 -2 4 4 6 13 3 8 -4 15 -2 15 3 0 6 5 10
10 10 14 0 111 68 133 93 9 11 17 16 17 12 0 -4 11 4 25 19 13 14 27 26 30 26
4 0 19 10 33 21 26 21 26 22 4 16 -20 -5 -21 -3 -11 9 7 9 21 13 32 10 10 -2
27 4 38 15 10 10 23 19 27 19 5 0 19 10 32 23 14 12 25 20 26 17 0 -3 25 17
54 43 41 37 51 51 40 57 -8 5 -21 5 -30 0 -9 -5 -22 -5 -30 0 -9 5 -19 5 -27
-2 -9 -7 -13 -7 -13 1 0 13 -15 13 -52 -2z m102 -21 c0 -9 -30 -14 -35 -6 -4
6 3 10 14 10 12 0 21 -2 21 -4z m-17 -43 c-7 -2 -19 -2 -25 0 -7 3 -2 5 12 5
14 0 19 -2 13 -5z m-93 -23 c-8 -5 -17 -7 -19 -4 -3 3 1 9 9 14 8 5 17 7 19 4
3 -3 -1 -9 -9 -14z m-223 -56 c-3 -3 -12 -4 -19 -1 -8 3 -5 6 6 6 11 1 17 -2
13 -5z m-417 -188 c0 -3 -4 -8 -10 -11 -5 -3 -10 -1 -10 4 0 6 5 11 10 11 6 0
10 -2 10 -4z m60 -6 c0 -5 -2 -10 -4 -10 -3 0 -8 5 -11 10 -3 6 -1 10 4 10 6
0 11 -4 11 -10z m280 -5 c-7 -8 -20 -15 -29 -15 -11 0 -8 5 9 14 33 19 35 19
20 1z m-198 -157 c-6 -6 -15 -8 -19 -4 -4 4 -1 11 7 16 8 5 17 7 19 4 3 -2 -1
-10 -7 -16z"></path>
<path d="M4723 3000 c0 -25 2 -35 4 -22 2 12 2 32 0 45 -2 12 -4 2 -4 -23z"></path>
<path d="M4773 3000 c0 -25 2 -35 4 -22 2 12 2 32 0 45 -2 12 -4 2 -4 -23z"></path>
<path d="M7288 2753 c7 -3 16 -2 19 1 4 3 -2 6 -13 5 -11 0 -14 -3 -6 -6z"></path>
<path d="M1987 1734 c-4 -4 -7 -18 -7 -30 0 -28 28 -38 64 -24 20 7 27 16 24
33 -2 17 -10 23 -38 25 -20 2 -39 0 -43 -4z"></path>
<path d="M2407 1733 c-2 -5 -3 -17 -3 -28 1 -16 9 -21 37 -23 39 -3 65 17 55
43 -6 16 -81 22 -89 8z"></path>
<path d="M2863 1725 c-27 -19 -37 -59 -22 -88 16 -30 28 -37 65 -37 60 0 84
62 43 114 -23 29 -54 33 -86 11z"></path>
<path d="M3300 1665 l0 -65 39 0 c50 0 71 21 71 69 0 48 -14 61 -67 61 l-43 0
0 -65z"></path>
<path d="M5353 1714 c-20 -20 -24 -31 -19 -57 8 -40 30 -57 72 -57 61 0 85 70
39 115 -31 32 -59 32 -92 -1z"></path>
<path d="M6935 1728 c-28 -16 -35 -28 -35 -65 0 -37 29 -63 72 -63 36 0 58 24
58 66 0 58 -47 89 -95 62z"></path>
</g>
</svg>